<svg width="50" height="50" viewBox="0 0 50 50" fill="none" xmlns="http://www.w3.org/2000/svg">
<circle cx="25" cy="25" r="25" fill="white"/>
<path fill-rule="evenodd" clip-rule="evenodd" d="M32.7227 18.9148L38.6152 24.8073C38.9768 25.1689 38.9768 25.7552 38.6152 26.1168L32.7227 32.0093C32.3611 32.3709 31.7748 32.3709 31.4132 32.0093C31.0516 31.6477 31.0516 31.0615 31.4132 30.6999L35.7251 26.388L16.6642 26.388C16.1528 26.388 15.7383 25.9734 15.7383 25.462C15.7383 24.9507 16.1528 24.5361 16.6642 24.5361L35.7251 24.5361L31.4132 20.2242C31.0516 19.8626 31.0516 19.2763 31.4132 18.9148C31.7748 18.5532 32.3611 18.5532 32.7227 18.9148Z" fill="#4659FF"/>
<path fill-rule="evenodd" clip-rule="evenodd" d="M31.2172 18.7188C31.6873 18.2487 32.4495 18.2487 32.9195 18.7188L38.8121 24.6113C39.2822 25.0814 39.2822 25.8435 38.8121 26.3136L32.9195 32.2062C32.4495 32.6763 31.6873 32.6763 31.2172 32.2062C30.7472 31.7361 30.7472 30.974 31.2172 30.5039L35.0549 26.6662L16.6646 26.6662C15.9999 26.6662 15.4609 26.1273 15.4609 25.4625C15.4609 24.7977 15.9999 24.2588 16.6646 24.2588L35.0549 24.2588L31.2172 20.4211C30.7472 19.951 30.7472 19.1888 31.2172 18.7188ZM32.5267 19.1116C32.2736 18.8585 31.8632 18.8585 31.6101 19.1116C31.357 19.3647 31.357 19.7751 31.6101 20.0282L35.922 24.3401C36.0014 24.4196 36.0252 24.539 35.9822 24.6428C35.9392 24.7466 35.8379 24.8143 35.7256 24.8143L16.6646 24.8143C16.3067 24.8143 16.0165 25.1045 16.0165 25.4625C16.0165 25.8204 16.3067 26.1106 16.6646 26.1106L35.7256 26.1106C35.8379 26.1106 35.9392 26.1783 35.9822 26.2821C36.0252 26.3859 36.0014 26.5054 35.922 26.5848L31.6101 30.8967C31.357 31.1498 31.357 31.5602 31.6101 31.8133C31.8632 32.0665 32.2736 32.0665 32.5267 31.8133L38.4192 25.9208C38.6724 25.6677 38.6724 25.2573 38.4192 25.0042L32.5267 19.1116Z" fill="#4659FF"/>
<path d="M12.9612 25.463C12.9612 25.9744 12.5467 26.389 12.0353 26.389C11.5239 26.389 11.1094 25.9744 11.1094 25.463C11.1094 24.9517 11.5239 24.5371 12.0353 24.5371C12.5467 24.5371 12.9612 24.9517 12.9612 25.463Z" fill="#4659FF"/>
<path fill-rule="evenodd" clip-rule="evenodd" d="M12.0357 24.8143C11.6778 24.8143 11.3876 25.1045 11.3876 25.4625C11.3876 25.8205 11.6778 26.1106 12.0357 26.1106C12.3937 26.1106 12.6839 25.8205 12.6839 25.4625C12.6839 25.1045 12.3937 24.8143 12.0357 24.8143ZM10.832 25.4625C10.832 24.7977 11.3709 24.2588 12.0357 24.2588C12.7005 24.2588 13.2394 24.7977 13.2394 25.4625C13.2394 26.1273 12.7005 26.6662 12.0357 26.6662C11.3709 26.6662 10.832 26.1273 10.832 25.4625Z" fill="#4659FF"/>
</svg>
