<svg width="80" height="80" viewBox="0 0 80 80" fill="none" xmlns="http://www.w3.org/2000/svg">
<path opacity="0.1" fill-rule="evenodd" clip-rule="evenodd" d="M56.1351 14.2289L30.1054 10.0755L10.6289 27.8367L12.3718 54.138L34.0216 69.1739L59.2757 61.6222L69.1171 37.1693L56.1351 14.2289ZM62.9639 6.70442C62.5091 5.90072 61.713 5.34787 60.8011 5.20236L28.4802 0.0450939C27.5683 -0.100419 26.6397 0.177252 25.9574 0.799501L1.77354 22.8535C1.09119 23.4757 0.729333 24.3748 0.790394 25.2963L2.9545 57.9544C3.01556 58.8759 3.4929 59.7194 4.25138 60.2461L31.1338 78.9162C31.8923 79.4429 32.8494 79.5957 33.7342 79.3311L65.0919 69.9541C65.9767 69.6895 66.6928 69.0365 67.0376 68.1798L79.2576 37.8169C79.6024 36.9602 79.5383 35.9931 79.0835 35.1894L62.9639 6.70442Z" fill="#9162CD"/>
</svg>
