<svg width="110" height="112" viewBox="0 0 110 112" fill="none" xmlns="http://www.w3.org/2000/svg">
<path opacity="0.1" fill-rule="evenodd" clip-rule="evenodd" d="M94.9671 56.122L79.0003 22.9666L43.1232 14.7779L14.352 37.7221L14.352 74.5219L43.1232 97.4661L79.0003 89.2774L94.9671 56.122ZM109.034 57.9601C109.593 56.7985 109.593 55.4455 109.034 54.2839L89.2077 13.115C88.6483 11.9535 87.5904 11.1098 86.3335 10.8229L41.7852 0.65508C40.5283 0.368195 39.2091 0.669283 38.2011 1.47312L2.47613 29.9628C1.46816 30.7667 0.881079 31.9858 0.881079 33.275L0.881077 78.969C0.881077 80.2582 1.46816 81.4773 2.47613 82.2812L38.2011 110.771C39.2091 111.575 40.5283 111.876 41.7852 111.589L86.3335 101.421C87.5904 101.134 88.6483 100.291 89.2077 99.129L109.034 57.9601Z" fill="#9162CD"/>
</svg>
