<svg width="98" height="99" viewBox="0 0 98 99" fill="none" xmlns="http://www.w3.org/2000/svg">
<path fill-rule="evenodd" clip-rule="evenodd" d="M68.9142 17.5933L36.7462 12.4604L12.6767 34.4101L14.8306 66.9137L41.5859 85.4954L72.7953 76.1628L84.9575 45.9435L68.9142 17.5933ZM77.3533 8.29438C76.7913 7.30115 75.8075 6.61792 74.6805 6.4381L34.7377 0.0646524C33.6108 -0.115175 32.4632 0.227974 31.62 0.996961L1.73312 28.2517C0.88986 29.0207 0.442666 30.1318 0.518128 31.2706L3.19258 71.6301C3.26804 72.7688 3.85793 73.8112 4.79528 74.4622L38.0171 97.535C38.9545 98.186 40.1373 98.3747 41.2307 98.0478L79.9832 86.4596C81.0766 86.1326 81.9616 85.3255 82.3877 84.2668L97.4894 46.7437C97.9155 45.685 97.8363 44.4899 97.2743 43.4967L77.3533 8.29438Z" fill="white" fill-opacity="0.13"/>
</svg>
