<svg xmlns="http://www.w3.org/2000/svg" viewBox="0 0 1440 150.54"><defs><style>.cls-1{fill:#fff;}</style></defs><g id="Слой_2" data-name="Слой 2"><g id="Слой_1-2" data-name="Слой 1"><path class="cls-1" d="M0,150.49H1440V88.94h0a398.39,398.39,0,0,1-84.77-6.77c-31.75-6-55.92-14.75-99.06-30.3-42.79-15.42-44.12-18.27-73.19-27.23a581.21,581.21,0,0,0-80-18.73C1059.21-.95,1026.48-.37,986.56.54,926.31,1.91,880.69,8.54,850.88,13c-54,8-93.42,17.58-102.62,19.84C712.84,41.5,685.11,50.29,660.77,58c-5.86,1.85-12.09,3.86-79,26.55-43.85,14.88-51.61,17.55-70.47,23.83-64.41,21.44-77.16,24.59-84.09,26.21a613.27,613.27,0,0,1-68.85,11.73,628.51,628.51,0,0,1-79.23,4.17c-15.33-.23-86.6-2-176-31.21A654.37,654.37,0,0,1,0,75.36Z"/></g></g></svg>