<svg width="135" height="138" viewBox="0 0 135 138" fill="none" xmlns="http://www.w3.org/2000/svg">
<path opacity="0.1" fill-rule="evenodd" clip-rule="evenodd" d="M116.596 69.0605L96.91 28.1812L52.675 18.0849L17.2013 46.3742L17.2013 91.7468L52.675 120.036L96.91 109.94L116.596 69.0605ZM133.94 71.3268C134.629 69.8946 134.629 68.2263 133.94 66.7942L109.495 16.0346C108.806 14.6025 107.501 13.5623 105.951 13.2086L51.0252 0.672019C49.4755 0.318302 47.849 0.689532 46.6062 1.68063L2.55874 36.8073C1.31595 37.7984 0.5921 39.3015 0.5921 40.8911L0.592098 97.2299C0.592098 98.8195 1.31594 100.323 2.55874 101.314L46.6062 136.44C47.849 137.431 49.4755 137.803 51.0252 137.449L105.951 124.912C107.501 124.559 108.806 123.519 109.495 122.086L133.94 71.3268Z" fill="#9162CD"/>
</svg>
