<svg width="155" height="157" viewBox="0 0 155 157" fill="none" xmlns="http://www.w3.org/2000/svg">
<path fill-rule="evenodd" clip-rule="evenodd" d="M108.956 28.4397L57.7451 20.2683L19.427 55.2117L22.8559 106.957L65.4498 136.539L115.135 121.681L134.497 73.5727L108.956 28.4397ZM122.391 13.6361C121.496 12.0549 119.93 10.9672 118.136 10.6809L54.5477 0.534513C52.7536 0.248233 50.9267 0.794518 49.5843 2.01873L2.00497 45.4077C0.662528 46.6319 -0.049394 48.4008 0.0707373 50.2137L4.32841 114.465C4.44854 116.278 5.38764 117.938 6.87988 118.974L59.7684 155.705C61.2607 156.742 63.1436 157.042 64.8843 156.522L126.578 138.073C128.318 137.553 129.727 136.268 130.405 134.583L154.447 74.8467C155.125 73.1612 154.999 71.2586 154.105 69.6774L122.391 13.6361Z" fill="white" fill-opacity="0.13"/>
</svg>
