<svg width="98" height="99" viewBox="0 0 98 99" fill="none" xmlns="http://www.w3.org/2000/svg">
<path opacity="0.1" fill-rule="evenodd" clip-rule="evenodd" d="M68.7087 18.504L36.6151 13.383L12.6014 35.2818L14.7503 67.7103L41.4437 86.249L72.5809 76.938L84.7149 46.7886L68.7087 18.504ZM77.1283 9.22659C76.5675 8.23566 75.5861 7.55402 74.4617 7.37461L34.6114 1.01591C33.487 0.8365 32.3421 1.17886 31.5008 1.94606L1.68309 29.1377C0.841788 29.9049 0.39563 31.0135 0.470914 32.1496L3.13918 72.4158C3.21446 73.5519 3.803 74.5919 4.73817 75.2413L37.8832 98.2607C38.8183 98.9102 39.9984 99.0985 41.0892 98.7723L79.7521 87.2109C80.843 86.8847 81.7259 86.0795 82.151 85.0232L97.2178 47.587C97.6429 46.5307 97.5639 45.3384 97.0032 44.3474L77.1283 9.22659Z" fill="#9162CD"/>
</svg>
