<svg xmlns="http://www.w3.org/2000/svg" viewBox="0 0 1920 243"><defs><style>.cls-1{fill:#fff;}</style></defs><g id="Слой_2" data-name="Слой 2"><g id="Слой_1-2" data-name="Слой 1"><path class="cls-1" d="M0,243H1920V121.93a497,497,0,0,1-82.3-10.73c-29-6.29-44-12.29-113.36-37.53-97.87-35.62-114-40.39-125.62-43.66-21-5.91-54.66-15.23-99.83-22-52.8-7.87-93.46-8-124.59-8-39.85,0-68.51,2.46-115.85,6.46-33.14,2.8-67.2,5.67-110.36,12.06-63.8,9.44-111,21.16-151.49,31.32C934.94,65.31,889.31,79.92,838.13,96.39c-32.39,10.43-24.4,8.36-139.41,47.24-85.14,28.78-114,38.17-156.42,47.15a859.51,859.51,0,0,1-89.7,14.12c-5.42.56-30.09,3-63.83,4.09-33.08,1-68.51,2-113.88-3.32-29.06-3.42-51.52-8.16-65.87-11.23-30.73-6.58-53.91-13.44-67.91-17.62-21.54-6.43-36.93-11-56.94-18.89C39.78,140.45,0,117.59,0,117.59H0Z"/></g></g></svg>